<?xml version="1.0" standalone="no"?>
<!DOCTYPE svg PUBLIC "-//W3C//DTD SVG 20010904//EN"
 "http://www.w3.org/TR/2001/REC-SVG-20010904/DTD/svg10.dtd">
<svg version="1.0" xmlns="http://www.w3.org/2000/svg"
 width="189.000000pt" height="194.000000pt" viewBox="0 0 189.000000 194.000000"
 preserveAspectRatio="xMidYMid meet">

<g transform="translate(0.000000,194.000000) scale(0.100000,-0.100000)"
fill="#000000" stroke="none">
<path d="M810 1925 c-153 -30 -274 -105 -341 -208 -63 -97 -85 -205 -46 -220
7 -3 73 -11 145 -18 147 -14 156 -11 166 45 4 18 22 51 42 74 63 74 187 92
266 39 50 -34 68 -78 68 -173 l0 -81 -145 -17 c-294 -34 -423 -90 -525 -225
-61 -80 -84 -168 -78 -295 4 -88 9 -112 35 -167 74 -157 224 -227 430 -201
107 14 202 58 283 130 l54 49 41 -56 c50 -67 109 -121 134 -121 9 0 68 44 129
97 82 71 112 103 112 120 0 13 -16 45 -35 72 -70 98 -69 88 -75 496 -6 355 -7
372 -29 428 -45 114 -166 200 -323 232 -92 18 -218 18 -308 0z m299 -869 c-4
-118 -5 -126 -39 -191 -48 -93 -99 -129 -180 -130 -105 0 -155 60 -155 186 0
67 4 83 30 125 49 80 147 120 329 133 17 1 18 -7 15 -123z"/>
</g>
</svg>
